<svg xmlns="http://www.w3.org/2000/svg" width="178" height="48" viewBox="0 0 178 48" fill="none" role="img"><path d="M79.91 11.272h5.024l-7.637 25.6h-7.134l-7.637-25.6h5.025L73.726 32.6l6.183-21.328zM98.906 36.872h-3.835l-.343-1.272a10.213 10.213 0 01-5.592 1.656c-3.419 0-4.873-2.344-4.873-5.6 0-3.808 1.654-5.264 5.448-5.264h4.49v-1.936c0-2.072-.575-2.808-3.571-2.808-1.743.018-3.48.211-5.184.576l-.576-3.576a24.358 24.358 0 016.391-.888c5.871 0 7.597 2.072 7.597 6.768l.048 12.344zM94.225 29.8h-3.451c-1.534 0-1.957.424-1.957 1.848 0 1.424.423 1.88 1.877 1.88a7.364 7.364 0 003.53-.96V29.8zM107.845 31.832a2.02 2.02 0 00-1.111 1.496c0 .496.304.728 1.039.8 2.069.232 3.195.344 5.408.576 3.036.344 3.994 1.848 3.994 4.536 0 4-1.462 5.6-8.443 5.6a27.17 27.17 0 01-7.19-.96l.575-3.496a25.92 25.92 0 006.295.8c3.723 0 4.45-.272 4.45-1.496s-.344-1.344-1.766-1.496c-2.149-.232-3.035-.344-5.408-.616-2.644-.304-3.683-1.192-3.683-3.576a4.007 4.007 0 011.958-3.2c-1.726-1.04-2.533-2.768-2.533-5.032v-1.776c.08-3.88 2.109-6.224 7.525-6.224 1.077-.008 2.151.12 3.196.384h5.759v2.344c-.655.192-1.422.384-2.069.576.446.908.67 1.908.655 2.92v1.768c0 3.808-2.3 6.112-7.525 6.112a9.682 9.682 0 01-1.126-.04zm1.07-10.304c-2.3 0-3.107.848-3.107 2.616v1.448c0 1.848.918 2.536 3.107 2.536s3.148-.728 3.148-2.536v-1.448c.008-1.752-.799-2.608-3.14-2.608l-.008-.008zM129.605 22.072a36.678 36.678 0 00-4.945 2.72v12.08h-4.713v-18.72h3.994l.304 2.072a20.943 20.943 0 014.913-2.456l.447 4.304zM145.262 36.872h-3.834l-.344-1.272a10.208 10.208 0 01-5.591 1.656c-3.419 0-4.873-2.344-4.873-5.6 0-3.808 1.653-5.264 5.448-5.264h4.489v-1.936c0-2.072-.575-2.808-3.571-2.808a26.081 26.081 0 00-5.184.576l-.575-3.576a24.35 24.35 0 016.39-.888c5.872 0 7.597 2.072 7.597 6.768l.048 12.344zm-4.681-7.072h-3.451c-1.534 0-1.957.424-1.957 1.848 0 1.424.423 1.88 1.877 1.88a7.365 7.365 0 003.531-.96V29.8zM159.194 36.872V23.8c0-1-.423-1.496-1.493-1.496a12.895 12.895 0 00-4.873 1.6v12.968h-4.682v-18.72h3.571l.464 1.6a18.692 18.692 0 017.485-1.96c3.107 0 4.218 2.192 4.218 5.536v13.6l-4.69-.056zM177.656 36.52a12.97 12.97 0 01-4.106.728c-3.419 0-5.145-1.6-5.145-4.96v-10.4h-2.804v-3.736h2.804v-4.648l4.681-.656v5.304h4.793l-.303 3.728h-4.49v9.8a1.488 1.488 0 00.431 1.249 1.47 1.47 0 001.255.407 8.983 8.983 0 002.34-.384l.544 3.568z" fill="#000"></path><path d="M46.478 8.088V3.696L35.94 9.832v3.712l-8.428 18.208-4.218 2.912V48l9.035-5.216L46.478 8.088zM23.295 25.168l-6.318-14.776V6.216l-.04-.016-6.28 3.632v3.712l8.428 19.008 4.21-2.088v-5.296z" fill="#1159CC"></path><path d="M40.159 0L29.63 6.176h-.008v4.216l-6.326 14.776v4.936l-4.21 2.448-8.428-19.008v-3.72l6.327-3.64L6.44 0 .12 3.696v4.528l14.227 34.6L23.295 48V35l4.218-2.448-.056-.032 8.484-18.976v-3.72l10.537-6.128L40.159 0z" fill="#127EFF"></path></svg>
