<svg xmlns="http://www.w3.org/2000/svg" viewBox="0 0 222.53 60.01">
  <path class="text" fill="#000000" d="M82.58 7.86V4.63h-3v3.23h-1.46V.11h1.51v3.25h3V.11h1.51v7.75zm7 0h-1.2l-.11-.38a3.28 3.28 0 0 1-1.7.52c-1.06 0-1.52-.7-1.52-1.66 0-1.14.51-1.57 1.7-1.57h1.4v-.62c0-.62-.18-.84-1.11-.84a8.46 8.46 0 0 0-1.61.17l-.18-1.07a7.89 7.89 0 0 1 2-.26c1.83 0 2.37.62 2.37 2zm-1.43-2.11h-1.08c-.48 0-.61.13-.61.55s.13.56.59.56a2.37 2.37 0 0 0 1.1-.29zM92.66 8a7.12 7.12 0 0 1-2-.32l.2-1.07a6.77 6.77 0 0 0 1.73.24c.65 0 .74-.14.74-.56s-.07-.52-1-.73c-1.42-.33-1.59-.68-1.59-1.76s.51-1.62 2.18-1.62a8 8 0 0 1 1.75.2l-.17 1.08a10.66 10.66 0 0 0-1.6-.16c-.63 0-.74.14-.74.48s0 .48.82.68c1.63.41 1.78.62 1.78 1.77S94.42 8 92.66 8zm6.68-.11V4c0-.3-.13-.45-.47-.45a4.14 4.14 0 0 0-1.52.45v3.86H95.9V0l1.46.22v2.47a5.31 5.31 0 0 1 2.13-.54c1 0 1.32.65 1.32 1.65v4.06zM102 1.48V.11h1.46v1.37zm0 6.38V2.27h1.46v5.59zm2.62-5.54c0-1.4.85-2.22 2.83-2.22a9.37 9.37 0 0 1 2.16.25l-.17 1.25a12.21 12.21 0 0 0-1.95-.2c-1 0-1.37.34-1.37 1.16V5.5c0 .81.33 1.16 1.37 1.16a12.21 12.21 0 0 0 1.95-.2l.17 1.25a9.37 9.37 0 0 1-2.16.25c-2 0-2.83-.81-2.83-2.22zM112.86 8c-2 0-2.53-1.06-2.53-2.2V4.36c0-1.15.54-2.2 2.53-2.2s2.53 1.06 2.53 2.2v1.41c.01 1.15-.53 2.23-2.53 2.23zm0-4.63c-.78 0-1.08.33-1.08 1v1.5c0 .63.3 1 1.08 1s1.08-.33 1.08-1V4.31c0-.63-.3-.96-1.08-.96zm6.64.09a11.57 11.57 0 0 0-1.54.81v3.6h-1.46v-5.6h1.23l.1.62a6.63 6.63 0 0 1 1.53-.73zM125.34 6a1.73 1.73 0 0 1-1.92 2 8.36 8.36 0 0 1-1.55-.16v2.26l-1.46.22v-8h1.16l.14.47a3.15 3.15 0 0 1 1.84-.59c1.17 0 1.79.67 1.79 1.94zm-3.48.63a6.72 6.72 0 0 0 1.29.15c.53 0 .73-.24.73-.75v-2c0-.46-.18-.71-.72-.71a2.11 2.11 0 0 0-1.3.51zM99.88 14.1h6.29l-9.56 32h-8.93l-9.56-32h6.29l7.73 26.66zm23.78 32h-4.8l-.43-1.59a12.8 12.8 0 0 1-7 2.07c-4.28 0-6.1-2.93-6.1-7 0-4.76 2.07-6.58 6.82-6.58h5.62v-2.42c0-2.59-.72-3.51-4.47-3.51a32.69 32.69 0 0 0-6.49.72l-.72-4.47a30.53 30.53 0 0 1 8-1.11c7.35 0 9.51 2.59 9.51 8.46zm-5.86-8.84h-4.32c-1.92 0-2.45.53-2.45 2.31s.53 2.35 2.35 2.35a9.23 9.23 0 0 0 4.42-1.2zm17.05 2.54a2.52 2.52 0 0 0-1.39 1.87c0 .62.38.91 1.3 1 2.59.29 4 .43 6.77.72 3.8.43 5 2.31 5 5.67 0 5-1.83 7-10.57 7a34.06 34.06 0 0 1-9-1.2l.72-4.37a32.49 32.49 0 0 0 7.88 1c4.66 0 5.57-.34 5.57-1.87s-.43-1.68-2.21-1.87c-2.69-.29-3.8-.43-6.77-.77-3.31-.38-4.61-1.49-4.61-4.47a5 5 0 0 1 2.45-4c-2.16-1.3-3.17-3.46-3.17-6.29V30c.1-4.85 2.64-7.78 9.42-7.78a15.9 15.9 0 0 1 4 .48h7.21v2.93c-.82.24-1.78.48-2.59.72a8 8 0 0 1 .82 3.65v2.21c0 4.76-2.88 7.64-9.42 7.64a12.18 12.18 0 0 1-1.41-.05zm1.34-12.88c-2.88 0-3.89 1.06-3.89 3.27V32c0 2.31 1.15 3.17 3.89 3.17s3.94-.91 3.94-3.17v-1.81c.01-2.19-1-3.26-3.93-3.26zm25.9.68a45.87 45.87 0 0 0-6.19 3.4v15.1H150V22.7h5l.38 2.59a26.22 26.22 0 0 1 6.15-3.07zm19.6 18.5h-4.8l-.43-1.59a12.8 12.8 0 0 1-7 2.07c-4.28 0-6.1-2.93-6.1-7 0-4.76 2.07-6.58 6.82-6.58h5.62v-2.42c0-2.59-.72-3.51-4.47-3.51a32.69 32.69 0 0 0-6.49.72l-.72-4.47a30.53 30.53 0 0 1 8-1.11c7.35 0 9.51 2.59 9.51 8.46zm-5.86-8.84h-4.32c-1.92 0-2.45.53-2.45 2.31s.53 2.35 2.35 2.35a9.23 9.23 0 0 0 4.42-1.2zm23.3 8.84V29.76c0-1.25-.53-1.87-1.87-1.87a16.16 16.16 0 0 0-6.1 2V46.1h-5.86V22.7h4.47l.58 2a23.43 23.43 0 0 1 9.37-2.45c3.89 0 5.28 2.74 5.28 6.92v17zm23.11-.44a16.25 16.25 0 0 1-5.14.91c-4.28 0-6.44-2-6.44-6.2v-13h-3.51V22.7h3.51v-5.81l5.86-.82v6.63h6l-.38 4.66h-5.62v12.25a1.85 1.85 0 0 0 2.11 2.07 11.27 11.27 0 0 0 2.93-.48z"/>
  <path class="front" fill="#1563FF" d="M58.03 10.12V4.63L44.84 12.3v4.64L34.29 39.7l-5.28 3.64v16.67l11.31-6.52 17.71-43.37zM29.01 31.47L21.1 13V7.78l-.05-.02-7.86 4.54v4.64L23.74 40.7l5.27-2.61v-6.62z"/>
  <path class="shadow" fill="#104EB2" d="M50.12.01L36.94 7.73h-.01V13l-7.92 18.47v6.17l-5.27 3.06-10.55-23.76v-4.65l7.92-4.55L7.91.01 0 4.63v5.66l17.81 43.25 11.2 6.47V43.76l5.28-3.06-.07-.04 10.62-23.72v-4.65l13.19-7.66L50.12.01z"/>
</svg>
