<svg fill="none" height="210" viewBox="0 0 592 210" width="592" xmlns="http://www.w3.org/2000/svg" xmlns:xlink="http://www.w3.org/1999/xlink"><filter id="a" color-interpolation-filters="sRGB" filterUnits="userSpaceOnUse" height="151" width="190" x="113" y="32"><feFlood flood-opacity="0" result="BackgroundImageFix"/><feBlend in="SourceGraphic" in2="BackgroundImageFix" mode="normal" result="shape"/><feGaussianBlur result="effect1_foregroundBlur" stdDeviation="10"/></filter><path d="m0 0h592v210h-592z" fill="#fff"/><g filter="url(#a)" opacity=".08"><path d="m133 52h150v111h-150z" fill="#000"/></g><path d="m120 39h176v120h-176z" fill="#000"/><path d="m120 39h176v10h-176z" fill="#2e71e5"/><g stroke="#b8d9ff" stroke-width="3"><path d="m140 69.5h36"/><path d="m184 69.5h25"/><path d="m217 69.5h15"/><path d="m140 81.5h69"/><path d="m240 81.5h36"/><path d="m217 81.5h15"/><path d="m140 93.5h36"/><path d="m240 93.5h18"/><path d="m184 93.5h48"/><path d="m140 105.5h36"/><path d="m240 105.5h18"/><path d="m184 105.5h25"/><path d="m217 105.5h15"/><path d="m140 117.5h69"/><path d="m240 117.5h36"/><path d="m217 117.5h15"/><path d="m140 129.5h36"/><path d="m184 129.5h25"/><path d="m217 129.5h15"/></g><rect fill="#000" height="80" rx="2" width="56" x="435" y="129"/><rect fill="#000" height="80" rx="2" width="56" x="435" y="13"/><rect fill="#d2f8fe" height="80" rx="2" width="56" x="421" y="117"/><rect fill="#d6ebff" height="80" rx="2" width="56" x="421" y="1"/><path d="m429 13h40v10h-40z" fill="#000"/><path d="m429 63h26v2h-26z" fill="#000"/><path d="m467 63h2v2h-2z" fill="#000"/><path d="m429 67h26v2h-26z" fill="#000"/><path d="m467 67h2v2h-2z" fill="#000"/><path d="m467 71h2v2h-2z" fill="#000"/><path d="m463 63h2v2h-2z" fill="#000"/><path d="m463 67h2v2h-2z" fill="#000"/><path d="m463 71h2v2h-2z" fill="#000"/><path d="m459 63h2v2h-2z" fill="#000"/><path d="m459 67h2v2h-2z" fill="#000"/><path d="m459 71h2v2h-2z" fill="#000"/><path d="m429 129h40v10h-40z" fill="#000"/><path d="m429 179h40v2h-40z" fill="#000"/><path d="m429 183h40v2h-40z" fill="#000"/><path d="m429 187h40v2h-40z" fill="#000"/><path d="m406 157h-42c-4.418 0-8-3.582-8-8v-21" stroke="#343536" stroke-linejoin="round" stroke-width="2"/><path d="m306 99h42c4.418 0 8 3.582 8 8v21" stroke="#343536" stroke-linejoin="round" stroke-width="2"/><path d="m306 99c0-1.6569 1.343-3 3-3s3 1.3431 3 3c0 1.657-1.343 3-3 3s-3-1.343-3-3z" fill="#fff" stroke="#343536" stroke-linecap="round" stroke-linejoin="round" stroke-width="2"/><path d="m407.7 157.002-8.7 5.1v-10.2z" fill="#343536"/><path d="m406 41h-42c-4.418 0-8 3.5817-8 8v21" stroke="#343536" stroke-linejoin="round" stroke-width="2"/><path d="m306 99h42c4.418 0 8-3.5817 8-8v-21" stroke="#343536" stroke-linejoin="round" stroke-width="2"/><path d="m306 99c0 1.657 1.343 3 3 3s3-1.343 3-3c0-1.6569-1.343-3-3-3s-3 1.3431-3 3z" fill="#fff" stroke="#343536" stroke-linecap="round" stroke-linejoin="round" stroke-width="2"/><path d="m407.7 40.9984-8.7-5.1v10.2z" fill="#343536"/></svg>