<svg xmlns="http://www.w3.org/2000/svg" viewBox="0 0 190.25 31"><path fill="#696566" d="M82.436 27.46L74.222 4.587c-.105-.316-.26-.733-.26-1.1 0-.99.837-1.932 2.037-1.932 1.047 0 1.73.68 2.042 1.671l6.806 19.709 6.855-19.764c.313-.937.942-1.617 1.983-1.617h.212c1.102 0 1.782.68 2.094 1.617l6.799 19.764 6.914-19.813c.261-.84.832-1.568 1.935-1.568 1.15 0 1.988.885 1.988 1.881 0 .365-.158.781-.26 1.1L105.1 27.46c-.423 1.197-1.256 1.826-2.2 1.826h-.156c-1.048 0-1.834-.629-2.203-1.826L93.795 8.024 86.99 27.46c-.366 1.197-1.154 1.826-2.198 1.826h-.11c-.99 0-1.825-.629-2.246-1.826M142.31 3.549c0-1.104.89-2.047 1.989-2.047 1.158 0 2.046.892 2.046 2.047V8.19c1.99-4.508 6.404-6.635 9.329-6.635 1.211 0 1.997.89 1.997 2.042 0 1.103-.73 1.885-1.787 2.043-5.244.629-9.538 4.562-9.538 12.375v9.191c0 1.101-.837 2.043-1.99 2.043a2.016 2.016 0 01-2.045-2.043L142.31 3.55zM170.623 29.504c-7.297 0-13.254-5.659-13.254-13.958v-.107c0-7.729 5.395-13.955 12.74-13.955 7.854 0 12.326 6.48 12.326 13.591a1.859 1.859 0 01-1.851 1.874H161.38c.56 5.806 4.615 9.073 9.347 9.073 3.288 0 5.695-1.297 7.65-3.113.308-.257.667-.464 1.132-.464.973 0 1.746.779 1.746 1.716 0 .465-.205.934-.621 1.293-2.514 2.436-5.496 4.05-10.012 4.05m7.857-15.514c-.412-4.881-3.187-9.131-8.479-9.131-4.622 0-8.115 3.888-8.622 9.131h17.101zM113.699 21.104v-.105c0-5.695 4.705-8.73 11.549-8.73 3.45 0 5.906.47 8.315 1.153v-.945c0-4.856-2.988-7.368-8.052-7.368-2.718 0-4.301.346-6.291 1.232a2.022 2.022 0 01-.725.159c-.941 0-1.781-.786-1.781-1.725 0-.834.364-1.35 1.1-1.676 2.661-1.155 4.667-1.539 8.115-1.539 3.812 0 6.74.99 8.722 2.977 1.833 1.83 2.774 4.442 2.774 7.893v14.91c0 1.146-.836 1.985-1.94 1.985-1.145 0-1.921-.838-1.921-1.881v-2.578c-1.885 2.461-5.024 4.653-9.77 4.653-5.02-.004-10.095-2.875-10.095-8.415m19.915-2.092V16.4c-1.99-.574-4.659-1.15-7.949-1.15-5.062 0-7.889 2.197-7.889 5.591v.104c0 3.396 3.133 5.382 6.795 5.382 4.963 0 9.043-3.032 9.043-7.314M9.224 3.251C8.339 1.311 6.15.432 4.109 1.34c-2.045.909-2.798 3.176-1.874 5.117L10.811 25.1c1.349 2.921 2.77 4.452 5.438 4.452 2.85 0 4.092-1.667 5.44-4.452 0 0 7.48-16.288 7.555-16.458.076-.172.316-.699 1.077-.694a1.19 1.19 0 011.185 1.208v15.927c0 2.455 1.361 4.47 3.981 4.47 2.618 0 4.033-2.015 4.033-4.47V12.05c0-2.514 1.801-4.145 4.256-4.145s4.089 1.69 4.089 4.145v13.033c0 2.455 1.366 4.47 3.981 4.47 2.618 0 4.04-2.015 4.04-4.47V12.05c0-2.514 1.794-4.145 4.25-4.145 2.451 0 4.091 1.69 4.091 4.145v13.033c0 2.455 1.365 4.47 3.983 4.47 2.616 0 4.036-2.015 4.036-4.47V10.25c0-5.452-4.384-9.27-9.659-9.27-5.268 0-8.568 3.645-8.568 3.645-1.754-2.274-4.172-3.64-8.263-3.64-4.317 0-8.096 3.64-8.096 3.64-1.755-2.274-4.743-3.64-7.216-3.64-3.827 0-6.865 1.682-8.719 5.921l-5.476 12.909L9.224 3.25zM182.761 4.866v-.022c0-1.824 1.48-3.36 3.34-3.36a3.336 3.336 0 013.346 3.346v.014c0 1.83-1.476 3.366-3.346 3.366a3.327 3.327 0 01-3.34-3.344m6.044-.022v-.009c0-1.5-1.159-2.73-2.704-2.73-1.531 0-2.707 1.251-2.707 2.739v.017c0 1.496 1.162 2.726 2.707 2.726 1.526 0 2.704-1.248 2.704-2.743"/><path fill="#696566" d="M184.822 3.521c0-.199.16-.357.36-.357h1.115c.42 0 .744.118.945.331.184.179.284.437.284.737v.01c0 .51-.257.822-.646.985l.492.6c.07.09.115.164.115.274a.332.332 0 01-.337.328c-.159 0-.266-.082-.35-.184l-.694-.878h-.569v.705a.35.35 0 01-.353.355.355.355 0 01-.36-.355v-2.55zm1.435 1.215c.348 0 .54-.181.54-.457v-.012c0-.3-.206-.463-.552-.463h-.711v.931h.723z"/></svg>