<svg xmlns="http://www.w3.org/2000/svg" viewBox="0 0 128 150">
  <path d="M52.444 35.61c0 .335.137.476.417.417.23 0 .47-.26.71-.794.26-.526.69-.818 1.3-.878h-.83c-1.05.17-1.58.59-1.58 1.254zm7.272-1.002c.556-.166 1.044-.043 1.463.376.41.42.73.6.96.545.33-.17.41-.42.25-.76-.45-.72-1.34-.78-2.68-.17z"/>
  <path d="M123.66 123.377c-.166-.107-.626-.375-1.378-.793-.752-.417-1.35-.777-1.798-1.087-.446-.304-1.03-.837-1.756-1.587-.724-.75-1.295-1.548-1.713-2.383-.417-.836-.823-1.962-1.212-3.382-.39-1.423-.614-2.994-.67-4.724-.78.67-1.21 2-1.294 3.98-.09 1.98.33 4 1.25 6.06.92 2.06 2.3 3.4 4.13 4.01 1.78.62 3.21 1.27 4.3 1.97 1.08.7 1.78 1.49 2.09 2.38.3.89-.21 1.85-1.55 2.89-1.34 1.03-3.49 2.05-6.44 3.06-4.07 1.39-6.96 2.58-8.66 3.56-1.7.97-4.2 2.83-7.48 5.56-2.23 1.84-4.6 2.83-7.11 2.97-2.51.13-4.55-.78-6.1-2.76-1.57-1.98-2.07-4.78-1.51-8.4 1.05-6.96 1.03-12.39-.09-16.3-.89-3.06-1.09-5.76-.59-8.1.5-2.34 1.28-3.7 2.34-4.09 1.05-.39 2.2.45 3.42 2.51.11.28.36.83.75 1.63.39.81.71 1.38.97 1.72.25.33.62.77 1.13 1.3.5.53 1.13.91 1.88 1.13.75.23 1.63.37 2.63.42 1.89.06 3.59-.33 5.09-1.17 1.5-.84 2.63-1.77 3.38-2.8.75-1.03 1.5-2.02 2.25-2.97.75-.94 1.4-1.48 1.96-1.59.61-.11 1.17-.73 1.67-1.84s.83-2.66 1-4.64c.16-1.98.03-4.33-.42-7.06-.84-4.85-2.49-10.18-4.97-15.97-2.48-5.79-5.26-10.34-8.32-13.63-5.52-5.85-9.23-11.93-11.12-18.22-1.95-6.63-2.79-12.6-2.51-17.89.27-3.79-.55-7.9-2.47-12.33s-4.43-7.85-7.61-10.19c-2.01-1.5-4.49-2.66-7.44-3.47S63.79-.03 60.83.02c-3.62 0-6.52.59-8.69 1.76-4.458 2.4-7.41 5.31-8.86 8.74-1.45 3.42-2.117 7.64-2.005 12.66.22 11.03.67 19.67 1.34 25.91-.78 2.9-4.23 8.33-10.36 16.3C31.15 66.5 30.06 68 29 69.9c-1.06 1.89-1.89 3.59-2.5 5.1-.61 1.5-1.43 3.68-2.46 6.52-1.03 2.84-1.77 4.85-2.21 6.02-.39 1-1 2.17-1.84 3.51-.83 1.34-1.5 2.65-2 3.93-.5 1.28-.78 2.73-.84 4.34-.05 1.23 0 2.28.17 3.17.23 1.34.64 1.75 1.26 1.25 2.51-1.89 5.66-.78 9.45 3.34 2.68 2.9 7.38 9.64 14.13 20.23.557.94 1.11 1.96 1.67 3.05.56 1.08 1.09 2.53 1.59 4.34s.71 3.44.627 4.89c-.08 1.45-.72 2.79-1.92 4.01s-3 2-5.39 2.34c-1.287.17-2.83.05-4.64-.33-1.81-.39-4.11-1.03-6.9-1.93-2.79-.89-4.85-1.5-6.19-1.84-1.95-.45-4.72-1.02-8.316-1.71-3.59-.7-5.95-1.22-7.06-1.55-1.89-.51-2.92-1.23-3.09-2.18-.17-.78.22-2.12 1.17-4.01.95-1.9 1.42-3.26 1.42-4.1.05-.61.03-1.23-.08-1.84-.11-.617-.24-1.09-.38-1.426-.14-.33-.38-.834-.71-1.5-.33-.67-.56-1.17-.67-1.505-1-2.34-1.14-3.93-.42-4.77.5-.72 1.7-1.01 3.6-.84 2.84.28 5.15-.14 6.94-1.26 2.95-1.84 3.85-4.79 2.68-8.86 0 1.89-.34 3.31-1.01 4.26-.67.94-1.84 1.92-3.51 2.92-.95.56-2.62.89-5.01 1-2.4.11-3.98.5-4.76 1.17-.56.5-.85 1.25-.88 2.25-.03 1.01.1 2.03.37 3.05.28 1.03.56 2.213.84 3.55.28 1.34.39 2.454.34 3.346-.06.61-.56 2.13-1.51 4.55-.94 2.43-1.134 4.28-.58 5.56.28.614.756 1.16 1.42 1.633.67.47 1.6.877 2.8 1.21 1.2.335 2.3.6 3.306.795 1.006.19 2.4.44 4.18.75s3.205.57 4.266.8c3.57.72 7.64 1.92 12.21 3.59 4.565 1.67 7.66 2.53 9.28 2.59 1.555.06 3.05-.27 4.47-.96 1.42-.7 2.63-1.49 3.63-2.38 1.006-.9 2.496-1.73 4.47-2.51 1.98-.78 4.2-1.2 6.65-1.25 1.11-.06 2.73-.12 4.84-.21 2.115-.08 3.703-.12 4.76-.12 4.79 0 8.42.02 10.87.08 1.67.05 2.98.32 3.93.79.95.47 1.56 1.02 1.84 1.63.28.61.74 1.32 1.38 2.13.64.8 1.47 1.46 2.47 1.96 2.12 1 4.6 1.4 7.44 1.21 2.84-.19 4.736-.74 5.68-1.63 1.56-1.5 3.67-3.29 6.31-5.35 2.65-2.06 5.03-3.62 7.15-4.68.45-.228 1.2-.58 2.26-1.09 1.06-.5 1.95-.93 2.68-1.298s1.6-.82 2.63-1.38c1.03-.55 1.86-1.07 2.504-1.54.64-.47 1.293-1.02 1.96-1.63.67-.61 1.1-1.23 1.296-1.835.19-.61.26-1.24.21-1.88-.06-.64-.39-1.31-1-2.005-.61-.69-1.48-1.38-2.59-2.05zM81.448 44.64c.168-.108.28-.15.335-.126.054.03.166.14.334.333.168.195.32.376.46.545.138.166.335.392.586.666.25.28.515.502.795.67.334.225.737.375 1.212.46.473.085.836.226 1.086.418.25.195.432.516.544.96.11.613.013 1.172-.293 1.67-.307.503-.71.728-1.212.67-1.003-.222-2.09-1.1-3.26-2.632s-1.367-2.74-.587-3.635zM71.084 12.166c.278-.363.444-.653.5-.878.11-.337.125-.684.042-1.046-.084-.36-.056-.724.083-1.087.13-.36.46-.568.96-.627.5 0 1.17.417 2 1.253.16.11.43.29.79.51.36.22.61.42.75.59.14.17.21.31.21.42-.11.28-.36.48-.75.59-.39.11-.81.17-1.26.17-.45 0-.7.03-.75.09-.45.17-.87.42-1.26.75-.39.34-.7.59-.92.76-.23.17-.45.17-.67 0-.23-.33-.31-.57-.25-.71.05-.14.22-.39.5-.75zM30.627 74.73c.39-.445.67-.806.835-1.088.167-.273.32-.652.46-1.126.138-.473.265-.82.377-1.044.11-.223.27-.307.5-.25.11.058.19.11.25.165.05.06.08.128.08.21v.25c0 .085-.02.196-.04.333-.03.144-.07.267-.13.38-.06.11-.12.278-.17.498-.06.226-.12.418-.17.584-.23.56-.58 1.062-1.05 1.505-.48.448-.83.643-1.05.584-.34-.1-.31-.44.08-1zm54.124 45.43c.48 2.926.66 4.973.55 6.142-.11 1.787-.49 4.29-1.13 7.523-.64 3.233-1.04 5.38-1.21 6.44-1.17-.06-1.84-.49-2-1.298-.16-.81 0-1.855.5-3.134 1.23-3.736 1.87-6.3 1.92-7.69.12-2.564-.16-4.012-.83-4.348-.61-.445-1.56.39-2.84 2.507-2.45 4.013-7.38 6.44-14.79 7.276-6.68.887-11.31-.114-13.87-3.01-.55-.392-1.11-.46-1.67-.21-.56.25-.92.517-1.08.793-.05.12 0 .28.17.51.17.23.44.56.8 1.01.36.45.66.89.88 1.34 2.17 3.79 1.98 6.35-.59 7.69 0-2.56-.19-4.53-.58-5.89-.39-1.36-1.17-2.87-2.34-4.51-1.17-1.64-1.98-2.88-2.42-3.72 1.68-.17 2.94-.81 3.81-1.92.87-1.11 1.26-2.31 1.17-3.59-.08-1.28-.57-2.34-1.46-3.17-.5-.5-3.09-2.63-7.77-6.39s-7.58-6.28-8.69-7.56c-.23-.22-.9-.78-2.01-1.67-1.11-.89-1.81-1.67-2.09-2.34-2.56-5.62-2.84-10.25-.83-13.87l.34-.42c.28-.05.31.45.09 1.51-.33 1.56-.45 3.12-.33 4.68.23 3.51 1.23 6.13 3.01 7.86 1.17 1.17 1.98 1.09 2.43-.25.33-.45.48-2.09.45-4.93-.03-2.84.01-4.76.12-5.76.44-3.18 1.77-7.11 3.97-11.79 2.2-4.68 3.94-7.19 5.22-7.52-1-1.61-1.32-3.37-.96-5.26.36-1.89.95-3.51 1.76-4.85.81-1.33 1.63-2.88 2.47-4.63.84-1.76 1.26-3.33 1.26-4.73 0-.39.03-.67.08-.83.16-.5.86.12 2.09 1.84 2.34 3.46 4.09 5.5 5.27 6.11 1.22.67 2.59.64 4.09-.08 1.5-.73 3.36-1.93 5.56-3.6 2.2-1.67 4.08-2.89 5.64-3.68.17-.05.43-.18.8-.37.36-.19.64-.33.84-.42.19-.08.45-.21.75-.37s.54-.3.71-.42c.17-.11.33-.23.5-.37.17-.14.28-.28.33-.41.06-.14.09-.26.09-.37-.11-.5-.35-.81-.71-.92-.36-.11-.85-.04-1.46.21s-1.3.59-2.05 1.01c-.75.42-1.59.89-2.51 1.42-.92.53-1.85 1.02-2.8 1.46-.95.45-1.95.84-3.01 1.18-1.06.33-2.06.53-3.01.58-2.34.06-4.2-.555-5.6-1.837-.89-.84-1.36-1.37-1.42-1.59-.05-.23.2-.28.76-.17 3.008.39 5.21.45 6.6.16 1.45-.23 3.4-.87 5.85-1.92.505-.22 1.77-.77 3.806-1.64 2.03-.87 3.61-1.47 4.72-1.8.67-.17 1.13-.43 1.38-.79.25-.36.33-.69.25-1-.08-.3-.27-.54-.54-.71-.62-.33-1.17-.11-1.67.67-.28.5-.87.99-1.76 1.46-.89.48-1.71.84-2.47 1.09-.75.25-1.72.54-2.89.877-1.17.33-1.81.53-1.92.58-3.07.944-5.91 1.36-8.53 1.25-1.23-.06-2.215-.24-2.97-.55-.75-.31-1.265-.67-1.544-1.09-.28-.42-.72-.95-1.34-1.59-.61-.64-1.31-1.18-2.09-1.63-.56-.28-.76-.78-.63-1.51.14-.73.58-1.48 1.3-2.26.057-.06.63-.4 1.717-1.05 1.09-.64 1.86-1.293 2.3-1.96.5-.78 1.37-1.59 2.59-2.43.06-.22.1-.84.13-1.84.027-1.01-.24-2.09-.795-3.264-.55-1.17-1.31-1.75-2.25-1.75-1.34-.055-2.282.33-2.84 1.17-.554.836-.805 1.87-.75 3.09.057 1.06.32 1.995.798 2.8.47.81.9 1.21 1.29 1.21.617-.05.81.17.59.67-.333.62-.78 1.01-1.34 1.17-.39.12-.82-.26-1.29-1.12-.474-.862-.84-1.91-1.09-3.134-.25-1.23-.35-2.26-.3-3.09.11-1.72.57-3.38 1.38-4.97.806-1.58 1.96-2.35 3.47-2.29 1.556.06 2.81 1.01 3.76 2.85.946 1.84 1.39 4.344 1.336 7.52.17.39.6.53 1.3.42.69-.11 1.61-.13 2.76-.04 1.14.08 1.96.37 2.46.875.054 0 .083-.415.083-1.25-1-7.02 1.473-10.75 7.44-11.2.89.17 1.64.377 2.26.63.61.25 1.26.67 1.96 1.25.69.586 1.28 1.44 1.75 2.55.47 1.12.85 2.51 1.13 4.18V33c0 1.79-.364 2.79-1.09 3.01-1.17.392-2.004.38-2.51-.04-.5-.42-.44-1.158.17-2.21.56-1.398.45-3.01-.33-4.85-.78-1.84-2.2-2.67-4.265-2.51-1.39.057-2.4.81-3.01 2.26-.61 1.45-.834 2.87-.67 4.26.17 1.394.477 2.115.92 2.17.34.06 1.326.5 2.97 1.34 1.65.835 2.89 1.334 3.72 1.504 2.18.444 3.42 1.142 3.72 2.09.31.95.18 2.33-.37 4.14-.554 1.81-.72 3.3-.5 4.47.22 1.23.64 2.34 1.256 3.342.61 1.01 1.26 1.922 1.96 2.76.7.833 1.52 2.4 2.47 4.68.95 2.29 1.81 5.16 2.59 8.61.054.06.264.25.63.583.36.33.72.75 1.08 1.26.368.5.8 1.18 1.3 2.04.5.86 1.04 2.13 1.63 3.8.58 1.67 1.13 3.59 1.63 5.76.61 2.57.93 5.55.96 8.95.03 3.4.25 5.73.67 6.98.418 1.25 1.49 1.77 3.218 1.55 2.173-.11 3.565-1.28 4.18-3.51 1.84-6.46.333-14.21-4.515-23.24-1.84-3.51-3.422-5.83-4.76-6.94 1.95 1.11 3.958 3.2 6.02 6.27 2.06 3.06 3.37 5.93 3.93 8.61.05.28.21 1.02.46 2.21s.39 1.89.42 2.09c.02.19.13.76.33 1.71.19.95.29 1.56.29 1.84s.03.82.08 1.63c.05.81.04 1.43-.04 1.88-.087.45-.17 1.04-.25 1.8-.09.75-.23 1.47-.42 2.17-.2.7-.407 1.46-.63 2.29 3.065 1.34 4.6 2.51 4.6 3.51-1.17-.94-2.84-1.57-5.017-1.88-2.17-.3-4.19-.01-6.06.88-1.865.9-2.83 2.37-2.88 4.43-2.006 0-3.427.51-4.264 1.51-1.222 1.45-1.863 3.41-1.92 5.89-.05 2.47.16 5.17.638 8.1zM50.27 29.427c-.166-.056-.307-.222-.417-.502 0-.5.25-.693.75-.584.336.12.655.54.963 1.26.305.73.375 1.57.21 2.51 0 .17-.084.25-.252.25-.614 0-.837-.55-.67-1.67.17-.84-.027-1.25-.584-1.25zm21.65 1.34l-.168.247c-.446.28-.67.336-.67.17-.223-1.506-.723-2.368-1.504-2.593l-.334-.16c-.39-.33-.197-.53.585-.58.16-.05.41.03.75.25.33.23.64.58.92 1.05.28.48.42 1.02.42 1.64z"/>
</svg>
