<svg xmlns="http://www.w3.org/2000/svg" viewBox="0 0 230.4 68">
  <path class="front" d="M65.8,11.5V5.2l-15,8.7v5.3l-12,26.6-5.9,3.3V68l12.8-7.4ZM14.9,13.9v5.3l12,26.9,6-2.9V35.7l-9-21V8.8L9,0,0,5.2Z" />
  <polygon class="shadow" points="32.9 49.1 38.8 45.8 50.8 19.2 50.8 13.9 65.8 5.2 56.8 0 41.9 8.7 41.8 8.8 41.9 8.8 41.9 14.7 38.7 21.7 35.6 29.2 32.9 35.7 32.9 43.2 26.9 46.1 26.8 45.9 15 19.2 15 13.9 0 5.2 0 11.6 5.9 26.1 9 33.4 20.2 60.7 32.9 68 32.9 49.4 32.9 49.1"/>
  <path class="text" d="M105,20.2h6.3l-9.6,32H92.8l-9.6-32h6.3l7.7,26.6Zm25.7,32h-4.8l-.4-1.6a12.74,12.74,0,0,1-7,2.1c-4.3,0-6.1-2.9-6.1-7,0-4.8,2.1-6.6,6.8-6.6h5.6V36.7c0-2.6-.7-3.5-4.5-3.5a35.9,35.9,0,0,0-6.5.7l-.7-4.5a29.18,29.18,0,0,1,8-1.1c7.3,0,9.5,2.6,9.5,8.4V52.2Zm-5.9-8.8h-4.3c-1.9,0-2.4.5-2.4,2.3,0,1.6.5,2.4,2.4,2.4a9.51,9.51,0,0,0,4.4-1.2V43.4Zm17,2.5a2.56,2.56,0,0,0-1.4,1.9c0,.6.4.9,1.3,1,2.6.3,4,.4,6.8.7,3.8.4,5,2.3,5,5.7,0,5-1.8,7-10.6,7a34.24,34.24,0,0,1-9-1.2l.7-4.4a33.5,33.5,0,0,0,7.9,1c4.7,0,5.6-.3,5.6-1.9,0-1.4-.4-1.7-2.2-1.9-2.7-.3-3.8-.4-6.8-.8-3.3-.4-4.6-1.5-4.6-4.5a5.07,5.07,0,0,1,2.4-4c-2.2-1.3-3.2-3.5-3.2-6.3V36c.1-4.8,2.6-7.8,9.4-7.8a15.59,15.59,0,0,1,4,.5h7.2v2.9c-.8.2-1.8.5-2.6.7a8.29,8.29,0,0,1,.8,3.6v2.2c0,4.8-2.9,7.6-9.4,7.6a1.48,1.48,0,0,1-1.3.2ZM143.2,33c-2.9,0-3.9,1.1-3.9,3.3v1.8c0,2.3,1.2,3.2,3.9,3.2s3.9-.9,3.9-3.2V36.3C147.1,34.1,146.1,33,143.2,33Zm25.9.7a46.46,46.46,0,0,0-6.2,3.4V52.2H157V28.8h4.9l.4,2.6a26.73,26.73,0,0,1,6.1-3.1l.7,5.4Zm19.5,18.5h-4.8l-.4-1.6a12.74,12.74,0,0,1-7,2.1c-4.3,0-6.1-2.9-6.1-7,0-4.8,2.1-6.6,6.8-6.6h5.6V36.7c0-2.6-.7-3.5-4.5-3.5a35.9,35.9,0,0,0-6.5.7l-.7-4.5a29.18,29.18,0,0,1,8-1.1c7.3,0,9.5,2.6,9.5,8.4V52.2Zm-5.8-8.8h-4.3c-1.9,0-2.4.5-2.4,2.3,0,1.6.5,2.4,2.4,2.4a9.51,9.51,0,0,0,4.4-1.2V43.4ZM207,52.2V35.9c0-1.2-.5-1.9-1.9-1.9a16.54,16.54,0,0,0-6.1,2V52.2h-5.9V28.8h4.5l.6,2a23.78,23.78,0,0,1,9.4-2.4c3.9,0,5.3,2.7,5.3,6.9V52.2H207Zm23.1-.4a16.51,16.51,0,0,1-5.1.9c-4.3,0-6.4-2-6.4-6.2v-13H215V28.8h3.5V23l5.9-.8v6.6h6l-.4,4.7h-5.6V45.7a1.9,1.9,0,0,0,2.1,2.1,10.4,10.4,0,0,0,2.9-.5l.7,4.5Z" />
</svg>
