<?xml version="1.0" standalone="no"?>
<!DOCTYPE svg PUBLIC "-//W3C//DTD SVG 20010904//EN"
 "http://www.w3.org/TR/2001/REC-SVG-20010904/DTD/svg10.dtd">
<svg version="1.0" xmlns="http://www.w3.org/2000/svg"
 width="16.000000pt" height="16.000000pt" viewBox="0 0 16.000000 16.000000"
 preserveAspectRatio="xMidYMid meet">
<metadata>
Created by potrace 1.11, written by Peter Selinger 2001-2013
</metadata>
<g transform="translate(0.000000,16.000000) scale(0.001563,-0.001563)"
fill="#000000" stroke="none">
<path d="M1440 10231 c0 -5 -8 -11 -17 -14 -19 -6 -75 -38 -83 -48 -3 -3 -17
-12 -32 -20 -38 -19 -272 -161 -278 -168 -3 -3 -19 -13 -35 -22 -24 -13 -374
-223 -500 -300 -16 -11 -37 -22 -45 -26 -8 -3 -17 -9 -20 -13 -3 -3 -39 -26
-80 -50 -107 -65 -112 -67 -148 -87 -18 -9 -35 -26 -38 -38 -2 -11 -3 -238 -2
-505 l3 -485 23 -50 c13 -27 28 -59 32 -70 4 -11 18 -42 29 -68 12 -27 31 -74
43 -105 11 -32 25 -62 29 -68 5 -6 6 -14 2 -17 -3 -4 -1 -7 5 -7 7 0 11 -3 10
-7 0 -5 2 -17 7 -28 4 -11 61 -148 127 -305 65 -156 118 -290 118 -297 0 -7 5
-13 10 -13 6 0 9 -3 8 -7 -1 -5 4 -21 11 -38 6 -16 22 -55 34 -85 12 -30 25
-56 30 -58 4 -2 7 -12 7 -21 0 -10 8 -33 17 -52 10 -19 18 -38 19 -44 3 -10
135 -329 154 -370 18 -39 59 -136 61 -143 2 -11 19 -53 35 -89 25 -59 41 -97
69 -167 15 -38 31 -77 35 -85 5 -9 36 -88 70 -176 34 -88 69 -175 76 -192 8
-18 51 -124 95 -235 45 -112 86 -214 92 -228 5 -14 11 -29 13 -35 2 -9 30 -78
67 -165 6 -14 11 -28 12 -32 2 -5 4 -11 5 -15 1 -5 2 -11 1 -15 0 -5 4 -8 9
-8 6 0 10 -7 10 -16 0 -9 6 -28 14 -42 8 -15 31 -70 52 -122 20 -52 41 -99 46
-105 4 -5 8 -15 8 -22 0 -7 9 -32 20 -56 22 -49 200 -477 204 -492 2 -5 13
-32 24 -58 12 -27 22 -51 22 -53 0 -3 9 -24 19 -47 10 -23 35 -82 55 -132 20
-49 41 -99 45 -110 80 -186 99 -234 94 -239 -4 -3 -1 -6 5 -6 7 0 12 -8 12
-18 0 -10 4 -22 8 -28 5 -5 21 -40 36 -79 16 -38 45 -110 66 -160 21 -49 60
-142 85 -205 26 -63 52 -126 58 -140 6 -14 11 -27 12 -30 0 -3 6 -15 13 -27 7
-13 10 -23 6 -23 -3 0 -2 -6 4 -12 5 -7 22 -44 37 -83 15 -38 35 -88 46 -110
10 -22 55 -130 100 -240 45 -110 87 -213 94 -230 8 -16 28 -66 45 -110 17 -44
40 -97 51 -118 10 -22 19 -47 19 -56 0 -9 4 -21 9 -27 5 -5 26 -49 46 -97 20
-48 41 -100 47 -115 6 -15 12 -29 13 -32 1 -3 9 -22 18 -44 9 -21 17 -40 17
-43 0 -2 12 -30 26 -61 15 -31 27 -61 29 -67 1 -5 10 -28 19 -50 9 -22 21 -49
25 -60 5 -11 14 -33 22 -50 7 -16 13 -32 14 -35 1 -3 6 -16 12 -30 6 -14 24
-58 41 -98 23 -57 37 -78 63 -94 87 -53 115 -69 132 -75 9 -3 17 -9 17 -14 0
-5 5 -9 10 -9 6 0 65 -31 131 -70 66 -38 124 -70 129 -70 6 0 10 -4 10 -8 0
-4 15 -15 33 -23 17 -9 73 -39 122 -68 99 -58 152 -89 235 -134 30 -17 57 -34
58 -39 2 -4 8 -8 12 -8 5 0 35 -15 67 -34 125 -73 169 -97 186 -103 9 -3 17
-9 17 -14 0 -5 4 -9 9 -9 5 0 88 -46 185 -103 97 -56 193 -110 214 -121 20
-10 39 -21 42 -25 3 -3 23 -15 45 -26 22 -11 42 -22 45 -25 8 -8 42 -28 80
-47 19 -9 52 -28 72 -41 l37 -24 38 23 c50 32 63 39 125 73 29 15 60 34 68 40
8 6 35 22 60 35 25 13 52 30 60 37 8 7 22 14 30 16 8 2 17 6 20 9 6 8 222 134
288 169 26 13 49 27 52 30 3 4 25 17 50 31 25 13 47 27 48 32 2 4 8 7 13 7 7
0 96 51 204 117 11 7 31 17 45 23 14 6 33 19 42 27 10 9 18 12 18 7 0 -5 4 -4
8 2 9 13 129 84 143 84 5 0 9 5 9 10 0 6 4 10 10 10 5 0 47 22 92 49 46 27
124 73 175 102 50 30 106 63 125 74 18 10 60 34 92 53 89 49 113 69 120 97 4
14 6 28 5 31 0 4 3 10 8 13 6 3 27 51 49 106 21 55 42 103 47 106 5 3 8 9 8
13 -1 3 -1 7 0 9 0 1 2 11 4 21 2 10 7 22 12 25 4 3 9 13 11 21 1 8 7 24 12
35 5 11 19 45 31 75 12 30 27 69 34 85 7 17 23 55 35 85 12 30 26 64 31 75 4
11 20 49 34 85 15 36 36 85 47 110 11 25 21 50 23 55 3 15 15 45 36 92 10 24
19 45 19 48 0 4 8 25 19 48 17 39 32 75 36 87 1 3 6 14 10 25 58 136 117 282
119 290 1 6 6 17 11 25 5 8 10 20 11 25 1 6 25 66 54 135 29 69 53 130 55 135
1 6 7 21 13 35 5 14 33 81 61 150 28 69 58 137 67 152 8 15 15 30 15 33 -1 9
36 101 74 190 13 30 25 63 24 68 0 1 14 32 30 69 17 37 31 74 31 83 0 8 5 15
10 15 6 0 10 7 10 16 0 8 11 39 23 67 13 29 41 95 62 147 34 88 44 110 74 180
5 14 27 66 46 115 20 50 44 106 52 125 9 19 16 41 16 48 0 6 4 12 9 12 4 0 8
11 8 24 0 13 3 26 8 28 4 2 40 86 81 188 41 102 84 205 95 230 11 25 21 50 22
55 1 6 10 30 21 55 34 76 58 134 59 142 1 4 3 10 4 13 1 3 3 10 4 15 0 6 6 14
11 18 6 4 11 14 13 22 3 17 37 106 63 165 9 22 29 69 43 105 15 36 31 74 36
85 5 11 18 43 29 70 10 28 35 88 54 135 37 88 96 233 170 418 24 59 48 116 52
127 5 11 9 22 10 25 1 3 11 27 23 53 12 27 25 60 28 73 3 13 10 27 15 30 5 3
7 10 4 15 -4 5 -1 9 5 9 6 0 9 4 5 9 -3 5 -1 12 5 16 6 4 8 11 5 16 -4 5 -1 9
5 9 6 0 9 4 6 9 -3 4 1 17 9 27 8 10 15 25 15 32 0 7 9 31 19 55 21 45 87 205
201 487 39 96 74 184 79 195 19 44 40 95 91 220 28 72 56 139 60 150 59 138
73 170 75 179 2 11 26 69 45 111 24 53 38 95 32 95 -4 0 -2 4 3 8 6 4 35 68
65 142 l54 135 1 466 0 465 -22 22 c-13 13 -23 20 -23 17 0 -5 -52 21 -90 45
-19 11 -148 84 -297 166 -27 15 -52 30 -57 35 -6 5 -18 9 -27 9 -10 0 -19 4
-21 9 -1 4 -30 23 -63 41 -82 45 -133 73 -180 100 -22 13 -74 41 -115 63 -41
22 -86 47 -100 56 -14 9 -38 23 -55 31 -16 8 -32 18 -35 21 -3 3 -30 18 -60
33 -68 35 -113 59 -120 66 -18 18 -153 81 -159 74 -6 -9 -19 -17 -101 -63 -25
-14 -51 -31 -58 -38 -13 -12 -27 -17 -44 -14 -5 0 -8 -4 -8 -10 0 -5 -13 -15
-30 -20 -16 -6 -30 -14 -30 -18 0 -5 -18 -16 -40 -26 -22 -10 -40 -21 -40 -25
0 -5 -11 -11 -25 -14 -14 -4 -25 -11 -25 -16 0 -6 -4 -10 -10 -10 -5 0 -61
-31 -125 -70 -64 -38 -120 -70 -125 -70 -6 0 -10 -4 -10 -8 0 -5 -18 -17 -40
-27 -22 -10 -40 -22 -40 -27 0 -4 -4 -8 -9 -8 -8 0 -41 -19 -169 -95 -9 -5
-107 -64 -217 -129 -110 -66 -216 -129 -235 -141 -93 -60 -292 -175 -300 -175
-6 0 -10 -3 -10 -8 0 -4 -21 -18 -47 -32 -27 -14 -52 -28 -58 -33 -23 -18
-158 -97 -166 -97 -5 0 -9 -4 -9 -8 0 -4 -12 -13 -27 -19 -30 -12 -85 -44 -93
-54 -3 -3 -23 -16 -45 -28 l-40 -22 0 -457 c1 -413 -1 -460 -16 -489 -10 -17
-15 -34 -12 -37 4 -3 1 -6 -5 -6 -7 0 -12 -4 -12 -10 0 -5 -15 -40 -32 -77
-18 -38 -33 -70 -33 -73 -1 -3 -16 -36 -34 -75 -18 -38 -57 -122 -86 -185 -29
-63 -67 -146 -86 -185 -18 -38 -33 -72 -34 -75 -1 -3 -16 -35 -33 -72 -97
-205 -172 -382 -172 -404 0 -8 -4 -14 -10 -14 -5 0 -10 -9 -10 -19 0 -11 -5
-23 -10 -26 -6 -4 -8 -10 -5 -15 3 -5 1 -11 -5 -15 -5 -3 -10 -15 -10 -26 0
-10 -4 -19 -8 -19 -5 0 -9 -6 -9 -12 0 -7 -7 -29 -16 -48 -8 -19 -48 -114 -87
-210 -40 -96 -77 -186 -83 -200 -6 -14 -11 -29 -12 -35 -1 -5 -10 -28 -20 -50
-10 -22 -19 -42 -20 -45 -1 -3 -7 -18 -13 -33 -7 -16 -12 -30 -12 -31 0 -2 -8
-21 -17 -42 -9 -22 -17 -41 -18 -44 -2 -7 -24 -59 -40 -95 -7 -16 -31 -75 -53
-130 -23 -55 -66 -160 -96 -234 -31 -74 -56 -140 -56 -147 0 -8 -4 -14 -8 -14
-5 0 -9 -6 -9 -12 -1 -13 -67 -180 -83 -210 -5 -9 -23 -53 -40 -97 -35 -89
-45 -102 -55 -69 -4 13 -15 41 -25 63 -9 22 -37 85 -60 140 -23 55 -51 119
-61 142 -32 71 -42 98 -41 106 1 4 -3 7 -8 7 -6 0 -10 6 -10 14 0 7 -21 60
-46 117 -58 133 -67 153 -69 159 0 3 -7 16 -15 30 -7 14 -13 26 -12 27 1 3
-27 71 -59 140 -10 24 -19 45 -19 47 0 2 -10 25 -22 52 -12 27 -23 51 -23 54
-3 8 -35 82 -61 138 -13 29 -24 55 -24 57 0 2 -11 28 -24 57 -13 29 -37 85
-54 123 -16 39 -38 88 -48 110 -9 22 -18 42 -19 45 -4 12 -26 64 -44 103 -10
23 -38 87 -61 142 -23 55 -50 118 -60 140 -9 22 -39 90 -65 150 -26 61 -50
117 -54 125 -4 8 -36 83 -71 165 -35 83 -68 153 -74 157 -6 4 -8 8 -4 8 7 0
-5 31 -49 130 -88 194 -164 384 -159 396 3 7 1 14 -5 14 -6 0 -6 7 1 19 7 13
7 22 0 26 -7 4 -7 13 0 24 6 12 5 22 -1 28 -8 8 -7 17 0 32 8 15 9 21 1 21 -6
0 -8 5 -5 11 10 15 12 79 3 79 -3 0 -3 14 2 30 5 17 6 30 2 30 -9 0 -8 53 2
68 3 6 2 13 -4 17 -6 4 -8 11 -4 16 9 16 10 79 1 79 -4 0 -3 9 3 19 7 13 7 22
0 26 -7 4 -7 13 0 24 6 12 5 22 -1 28 -8 8 -7 17 0 32 8 15 9 21 1 21 -6 0 -8
5 -5 11 9 13 12 79 5 79 -7 0 -4 59 3 67 4 3 2 12 -4 19 -7 8 -7 14 1 19 23
14 -15 45 -162 130 -84 49 -155 88 -157 86 -2 -1 -7 1 -10 6 -9 12 -42 32 -73
44 -16 6 -28 15 -28 19 0 5 -9 11 -19 15 -11 3 -84 44 -164 90 -80 47 -150 85
-156 85 -6 0 -11 3 -11 8 0 4 -17 16 -37 27 -42 22 -335 189 -370 211 -13 8
-26 15 -30 15 -5 1 -19 10 -32 20 -13 11 -30 19 -37 19 -8 0 -14 4 -14 9 0 5
-16 15 -35 22 -19 7 -35 16 -35 20 0 4 -8 9 -17 13 -10 3 -27 11 -38 18 -50
33 -126 78 -130 78 -3 0 -76 41 -162 92 -87 50 -176 101 -197 112 -22 12 -45
25 -50 29 -26 20 -176 105 -176 100 0 -4 -8 1 -17 9 -20 17 -146 88 -156 88
-4 0 -7 -4 -7 -9z"/>
</g>
</svg>
