<svg width="233" height="72" viewBox="0 0 233 72" fill="none" xmlns="http://www.w3.org/2000/svg">
<path d="M74.1632 12H77.5263L72.414 29.1371H67.6383L62.526 12H65.8898L70.0235 26.2773L74.1632 12ZM86.8794 29.1371H84.3122L84.0826 28.2856C82.9691 29.0111 81.6682 29.3963 80.3392 29.3942C78.0505 29.3942 77.0771 27.825 77.0771 25.6454C77.0771 23.0963 78.1844 22.1216 80.7241 22.1216H83.7298V20.8256C83.7298 19.4386 83.3449 18.9459 81.3393 18.9459C80.1725 18.9579 79.0097 19.0871 77.8691 19.3315L77.4835 16.9376C78.8769 16.5506 80.3156 16.3507 81.7617 16.3432C85.6919 16.3432 86.8473 17.7302 86.8473 20.8738L86.8794 29.1371ZM83.7459 24.403H81.4357C80.4088 24.403 80.1257 24.6868 80.1257 25.6401C80.1257 26.5933 80.4088 26.8986 81.3822 26.8986C82.2114 26.8865 83.0241 26.6655 83.7452 26.2559L83.7459 24.403ZM92.8634 25.7632C92.6681 25.8582 92.4986 25.9988 92.3691 26.1731C92.2397 26.3474 92.1541 26.5503 92.1196 26.7647C92.1196 27.0967 92.3231 27.252 92.8152 27.3002C94.2002 27.4555 94.9539 27.5305 96.4354 27.6858C98.4677 27.9161 99.109 28.9229 99.109 30.7223C99.109 33.4 98.1303 34.471 93.4571 34.471C91.8312 34.4729 90.2125 34.2568 88.644 33.8284L89.0289 31.4881C90.4064 31.8385 91.8216 32.0184 93.2429 32.0236C95.7352 32.0236 96.2218 31.8415 96.2218 31.0222C96.2218 30.2028 95.9915 30.1225 95.0396 30.0207C93.6011 29.8654 93.008 29.7905 91.4194 29.6084C89.6495 29.4049 88.954 28.8104 88.954 27.2145C88.9811 26.7776 89.1147 26.354 89.3431 25.9806C89.5716 25.6072 89.888 25.2954 90.2647 25.0724C89.1093 24.3762 88.569 23.2194 88.569 21.7039V20.515C88.6226 17.9177 89.9808 16.3485 93.6064 16.3485C94.3274 16.3432 95.0463 16.4289 95.7459 16.6056H99.6011V18.1747C99.1626 18.3032 98.6491 18.4318 98.216 18.5603C98.5146 19.1681 98.6645 19.8375 98.6545 20.515V21.6985C98.6545 24.2477 97.1148 25.79 93.6171 25.79C93.3656 25.7957 93.1139 25.7868 92.8634 25.7632ZM93.5796 18.8655C92.04 18.8655 91.4998 19.4332 91.4998 20.6167V21.5861C91.4998 22.8231 92.1143 23.2837 93.5796 23.2837C95.045 23.2837 95.687 22.7964 95.687 21.5861V20.6167C95.6923 19.4439 95.1521 18.8709 93.585 18.8709L93.5796 18.8655ZM107.43 19.2297C106.281 19.7507 105.175 20.3595 104.12 21.0505V29.1371H100.965V16.6056H103.638L103.842 17.9926C104.861 17.3026 105.967 16.7498 107.131 16.3485L107.43 19.2297ZM117.911 29.1371H115.344L115.114 28.2856C114.001 29.0112 112.7 29.3964 111.371 29.3942C109.083 29.3942 108.109 27.825 108.109 25.6454C108.109 23.0963 109.216 22.1216 111.756 22.1216H114.761V20.8256C114.761 19.4386 114.376 18.9459 112.371 18.9459C111.204 18.9581 110.042 19.0873 108.901 19.3315L108.516 16.9376C109.909 16.5506 111.347 16.3507 112.793 16.3432C116.724 16.3432 117.879 17.7302 117.879 20.8738L117.911 29.1371ZM114.777 24.403H112.467C111.44 24.403 111.157 24.6868 111.157 25.6401C111.157 26.5933 111.44 26.8986 112.414 26.8986C113.243 26.8866 114.056 26.6656 114.777 26.2559V24.403ZM127.237 29.1371V20.3865C127.237 19.717 126.954 19.385 126.238 19.385C125.09 19.52 123.98 19.8842 122.976 20.4561V29.1371H119.842V16.6056H122.232L122.543 17.6767C124.103 16.8946 125.81 16.4477 127.553 16.3646C129.633 16.3646 130.377 17.832 130.377 20.0705V29.1746L127.237 29.1371ZM139.596 28.9015C138.712 29.2111 137.784 29.3757 136.847 29.3888C134.559 29.3888 133.403 28.3177 133.403 26.0685V19.1065H131.526V16.6056H133.403V13.4941L136.537 13.055V16.6056H139.745L139.543 19.1012H136.537V25.6615C136.517 25.8137 136.533 25.9683 136.583 26.1133C136.633 26.2583 136.716 26.3899 136.825 26.4976C136.935 26.6053 137.067 26.6861 137.213 26.7334C137.359 26.7807 137.514 26.7932 137.665 26.77C138.197 26.7539 138.723 26.6675 139.232 26.513L139.596 28.9015Z" fill="black"/>
<path d="M46.478 20.088V15.696L35.94 21.832V25.544L27.512 43.752L23.294 46.664V60L32.329 54.784L46.478 20.088ZM23.295 37.168L16.977 22.392V18.216L16.937 18.2L10.657 21.832V25.544L19.085 44.552L23.295 42.464V37.168V37.168Z" fill="#1159CC"/>
<path d="M40.159 12L29.63 18.176H29.622V22.392L23.296 37.168V42.104L19.086 44.552L10.658 25.544V21.824L16.985 18.184L6.44 12L0.119995 15.696V20.224L14.347 54.824L23.295 60V47L27.513 44.552L27.457 44.52L35.941 25.544V21.824L46.478 15.696L40.159 12Z" fill="#127EFF"/>
<path d="M171.486 56.8633C173.557 56.8633 175.158 55.7313 175.848 54.5717V56.5044H177.643V42.6995H175.848V50.2922C175.821 53.3293 174.247 55.262 171.707 55.262C169.636 55.262 168.255 53.4397 168.228 51.1205V42.6995H166.378V51.1757C166.378 54.7926 168.559 56.8633 171.486 56.8633Z" fill="black"/>
<path d="M184.333 56.5044H186.073L186.1 54.7926H184.499C183.45 54.7926 182.76 54.1852 182.76 52.8323V44.3285H186.045V42.6995H182.76V38.7789H180.993V42.6995H178.894V44.3285H180.993V52.998C180.993 55.2067 182.318 56.5044 184.333 56.5044Z" fill="black"/>
<path d="M187.753 39.4967H189.852V37.1775H187.753V39.4967ZM187.891 56.5044H189.713V42.6995H187.891V56.5044Z" fill="black"/>
<path d="M193.011 56.5044H194.833V37.1775H193.011V56.5044Z" fill="black"/>
<path d="M197.993 39.4967H200.091V37.1775H197.993V39.4967ZM198.131 56.5044H199.953V42.6995H198.131V56.5044Z" fill="black"/>
<path d="M206.619 56.5044H208.358L208.386 54.7926H206.785C205.736 54.7926 205.045 54.1852 205.045 52.8323V44.3285H208.331V42.6995H205.045V38.7789H203.278V42.6995H201.18V44.3285H203.278V52.998C203.278 55.2067 204.604 56.5044 206.619 56.5044Z" fill="black"/>
<path d="M209.128 62.0264H210.066C212.745 61.9988 213.877 60.7011 214.65 58.658L221 42.6995H218.957L214.733 53.3845L210.453 42.6995H208.382L213.821 55.7037L212.8 58.3543C212.331 59.5415 211.53 60.3146 210.011 60.3146H209.128V62.0264Z" fill="black"/>
<path d="M106.26 55.6576L102.094 44.0514C102.022 43.873 101.978 43.6848 101.962 43.4932C101.971 43.2302 102.082 42.9811 102.271 42.7983C102.461 42.6156 102.714 42.5136 102.977 42.5137C103.216 42.521 103.447 42.6084 103.631 42.7621C103.815 42.9158 103.942 43.1267 103.992 43.3612L107.483 53.3841L110.965 43.3308C111.015 43.0989 111.143 42.8911 111.328 42.7417C111.512 42.5923 111.742 42.5101 111.98 42.5087H112.086C112.33 42.5071 112.566 42.5872 112.759 42.7363C112.951 42.8854 113.088 43.0947 113.147 43.3308L116.593 53.3841L120.099 43.3308C120.144 43.1022 120.265 42.8958 120.443 42.7461C120.622 42.5964 120.846 42.5126 121.079 42.5087C121.208 42.5039 121.337 42.5249 121.459 42.5704C121.58 42.6159 121.691 42.6851 121.785 42.7738C121.88 42.8625 121.956 42.9691 122.009 43.0874C122.062 43.2056 122.091 43.3332 122.094 43.4627C122.077 43.6543 122.033 43.8423 121.962 44.021L117.765 55.6525C117.704 55.9071 117.562 56.1351 117.361 56.3024C117.16 56.4698 116.91 56.5676 116.648 56.5812H116.567C116.303 56.579 116.047 56.4854 115.843 56.3161C115.64 56.1468 115.501 55.9124 115.451 55.6525L112.051 45.7718L108.574 55.6576C108.524 55.9175 108.385 56.1519 108.182 56.3212C107.978 56.4904 107.723 56.5841 107.458 56.5863H107.402C107.137 56.5773 106.881 56.4816 106.675 56.3139C106.469 56.1463 106.323 55.9158 106.26 55.6576Z" fill="black"/>
<path d="M136.648 43.5235C136.648 43.2543 136.755 42.9961 136.946 42.8058C137.136 42.6154 137.394 42.5085 137.663 42.5085C137.933 42.5085 138.191 42.6154 138.381 42.8058C138.571 42.9961 138.678 43.2543 138.678 43.5235V45.8782C139.084 44.9347 139.742 44.1214 140.58 43.5278C141.418 42.9341 142.404 42.5832 143.428 42.5136C143.563 42.5093 143.697 42.5327 143.822 42.5822C143.947 42.6317 144.06 42.7063 144.156 42.8014C144.251 42.8966 144.325 43.0101 144.375 43.1352C144.424 43.2602 144.448 43.3941 144.443 43.5285C144.445 43.7802 144.353 44.0235 144.185 44.211C144.017 44.3986 143.785 44.5171 143.535 44.5435C140.876 44.8632 138.694 46.8577 138.694 50.8211V55.4849C138.694 55.7541 138.587 56.0123 138.396 56.2026C138.206 56.3929 137.948 56.4999 137.679 56.4999C137.409 56.4999 137.151 56.3929 136.961 56.2026C136.771 56.0123 136.664 55.7541 136.664 55.4849V43.5235H136.648Z" fill="black"/>
<path d="M151.015 56.6926C147.311 56.6926 144.291 53.8203 144.291 49.5878V49.532C144.291 45.6092 147.032 42.4272 150.757 42.4272C154.74 42.4272 157.014 45.7157 157.014 49.324C157.024 49.4538 157.006 49.5842 156.963 49.707C156.92 49.8299 156.852 49.9425 156.764 50.0378C156.675 50.1331 156.568 50.2091 156.448 50.2609C156.329 50.3127 156.2 50.3393 156.07 50.3389H146.326C146.61 53.2874 148.666 54.9418 151.071 54.9418C152.523 54.9513 153.92 54.3836 154.953 53.3635C155.077 53.2476 155.232 53.1704 155.399 53.1414C155.566 53.1124 155.737 53.1329 155.893 53.2004C156.048 53.2678 156.18 53.3793 156.273 53.521C156.366 53.6627 156.415 53.8285 156.415 53.9979C156.413 54.1233 156.384 54.2469 156.33 54.3599C156.276 54.473 156.197 54.5729 156.1 54.6525C155.44 55.3228 154.649 55.8492 153.775 56.1985C152.902 56.5479 151.966 56.7127 151.025 56.6825L151.015 56.6926ZM155.004 48.8165C154.796 46.3399 153.385 44.1831 150.701 44.1831C148.356 44.1831 146.58 46.1572 146.326 48.8165H155.004Z" fill="black"/>
<path d="M122.124 52.4297V52.3688C122.124 49.4812 124.509 47.9385 127.986 47.9385C129.412 47.9245 130.834 48.1211 132.203 48.5221V48.0552C132.203 45.5888 130.68 44.315 128.118 44.315C127.019 44.2678 125.925 44.4817 124.926 44.9392C124.81 44.9887 124.686 45.0162 124.56 45.0204C124.325 45.0192 124.1 44.9271 123.932 44.7634C123.763 44.5998 123.665 44.3772 123.657 44.1425C123.647 43.958 123.698 43.7754 123.801 43.6224C123.905 43.4694 124.055 43.3544 124.23 43.295C125.518 42.7204 126.922 42.4529 128.331 42.5134C130.264 42.5134 131.751 43.0209 132.756 44.0359C133.685 44.9646 134.162 46.2891 134.162 48.04V55.5964C134.168 55.7288 134.147 55.861 134.1 55.985C134.053 56.1089 133.982 56.222 133.889 56.3171C133.797 56.4122 133.686 56.4874 133.564 56.538C133.441 56.5886 133.31 56.6136 133.177 56.6114C133.05 56.6162 132.923 56.595 132.803 56.5491C132.684 56.5031 132.576 56.4333 132.485 56.344C132.394 56.2547 132.322 56.1478 132.273 56.0297C132.225 55.9116 132.201 55.7849 132.203 55.6573V54.3429C131.623 55.102 130.871 55.7119 130.009 56.1223C129.147 56.5327 128.199 56.7317 127.245 56.7027C124.707 56.7027 122.119 55.2462 122.119 52.4297H122.124ZM132.233 51.3538V50.0445C130.923 49.6591 129.565 49.4626 128.199 49.4609C125.631 49.4609 124.195 50.5774 124.195 52.2978V52.3688C124.195 54.0943 125.783 55.0991 127.641 55.0991C130.178 55.0991 132.208 53.5766 132.208 51.3894" fill="black"/>
<path d="M69.1072 43.3713C69.0032 43.1345 68.8528 42.9211 68.6648 42.7435C68.4768 42.566 68.2551 42.4279 68.0129 42.3376C67.7706 42.2472 67.5127 42.2063 67.2544 42.2174C66.996 42.2284 66.7425 42.2912 66.5089 42.402C66.2706 42.5039 66.0557 42.6535 65.8775 42.8417C65.6992 43.0298 65.5614 43.2524 65.4725 43.4959C65.3836 43.7393 65.3455 43.9984 65.3605 44.2571C65.3755 44.5159 65.4434 44.7688 65.5599 45.0003L69.9294 54.4598C70.6145 55.9417 71.3351 56.7181 72.6901 56.7181C74.1364 56.7181 74.7657 55.8706 75.4508 54.4598L79.2671 46.1066C79.3116 46.0002 79.3885 45.9106 79.4869 45.8504C79.5853 45.7903 79.7002 45.7627 79.8152 45.7717C79.8949 45.7723 79.9737 45.7888 80.0471 45.82C80.1204 45.8513 80.1869 45.8968 80.2425 45.9539C80.2982 46.011 80.342 46.0786 80.3715 46.1527C80.4009 46.2268 80.4153 46.306 80.414 46.3857V54.4497C80.414 55.693 81.1042 56.7181 82.4439 56.7181C83.7837 56.7181 84.4739 55.7031 84.4739 54.4497V47.8523C84.4633 47.5684 84.5125 47.2854 84.6182 47.0216C84.724 46.7578 84.8839 46.5192 85.0877 46.3212C85.2915 46.1231 85.5346 45.9701 85.8012 45.8719C86.0679 45.7738 86.3522 45.7327 86.6358 45.7514C86.9123 45.7389 87.1883 45.7845 87.4462 45.8852C87.704 45.9858 87.938 46.1393 88.133 46.3357C88.328 46.5321 88.4797 46.7672 88.5785 47.0258C88.6772 47.2843 88.7207 47.5607 88.7063 47.8371V54.4344C88.7063 55.6778 89.4016 56.7029 90.7363 56.7029C92.0709 56.7029 92.7662 55.6879 92.7662 54.4344V47.8371C92.7557 47.5536 92.8047 47.271 92.9102 47.0077C93.0156 46.7443 93.1751 46.5059 93.3783 46.3079C93.5815 46.11 93.824 45.9568 94.0901 45.8583C94.3561 45.7598 94.6399 45.7182 94.923 45.7361C95.2013 45.7228 95.4793 45.7682 95.7388 45.8694C95.9984 45.9707 96.2337 46.1254 96.4295 46.3236C96.6253 46.5218 96.7772 46.759 96.8752 47.0198C96.9733 47.2805 97.0153 47.559 96.9986 47.8371V54.4344C96.9986 55.6778 97.6888 56.7029 99.0286 56.7029C100.368 56.7029 101.059 55.6879 101.059 54.4344V46.9236C101.089 44.1579 98.856 42.2193 96.1866 42.2193C94.5513 42.248 92.9914 42.9124 91.8375 44.0716C90.9494 42.9145 89.7213 42.2193 87.6457 42.2193C85.4533 42.2193 83.535 44.0665 83.535 44.0665C83.0941 43.5133 82.5389 43.0619 81.9074 42.743C81.2759 42.4242 80.583 42.2456 79.8761 42.2193C77.9324 42.2193 76.3896 43.0718 75.4508 45.2236L72.6698 51.7752L69.1072 43.3713Z" fill="black"/>
<path d="M157.176 44.1932C157.176 43.7429 157.355 43.3112 157.673 42.9928C157.992 42.6745 158.424 42.4956 158.874 42.4956C159.324 42.4956 159.756 42.6745 160.074 42.9928C160.392 43.3112 160.571 43.7429 160.571 44.1932C160.572 44.4171 160.529 44.6389 160.443 44.8461C160.358 45.0532 160.233 45.2416 160.075 45.4004C159.918 45.5592 159.73 45.6853 159.523 45.7716C159.317 45.858 159.095 45.9027 158.871 45.9034C158.648 45.9041 158.428 45.8607 158.222 45.7757C158.016 45.6908 157.829 45.5659 157.671 45.4084C157.514 45.2509 157.389 45.0638 157.304 44.8578C157.219 44.6519 157.176 44.4312 157.176 44.2084V44.1932ZM160.221 44.2084C160.224 44.027 160.19 43.8469 160.123 43.6785C160.055 43.5102 159.954 43.3571 159.827 43.2281C159.699 43.0991 159.547 42.9969 159.38 42.9273C159.212 42.8577 159.032 42.8222 158.851 42.8229C158.669 42.8236 158.489 42.8601 158.322 42.9304C158.154 43.0007 158.002 43.1034 157.875 43.2326C157.747 43.3618 157.646 43.515 157.577 43.6833C157.509 43.8516 157.474 44.0318 157.476 44.2135C157.464 44.4007 157.491 44.5884 157.555 44.7648C157.619 44.9413 157.718 45.1028 157.847 45.2394C157.975 45.3761 158.131 45.485 158.303 45.5594C158.475 45.6338 158.661 45.6722 158.848 45.6722C159.036 45.6722 159.222 45.6338 159.394 45.5594C159.566 45.485 159.721 45.3761 159.85 45.2394C159.979 45.1028 160.078 44.9413 160.142 44.7648C160.205 44.5884 160.233 44.4007 160.221 44.2135" fill="black"/>
<path d="M158.232 43.5083C158.232 43.4598 158.251 43.4134 158.285 43.3791C158.32 43.3449 158.366 43.3256 158.415 43.3256H158.983C159.07 43.3189 159.158 43.3303 159.241 43.3592C159.324 43.388 159.4 43.4336 159.465 43.4931C159.513 43.5427 159.55 43.6016 159.575 43.6662C159.599 43.7308 159.61 43.7996 159.607 43.8686C159.614 43.9774 159.586 44.0855 159.526 44.1769C159.467 44.2683 159.379 44.3382 159.277 44.3761L159.526 44.6806C159.56 44.7184 159.58 44.7668 159.582 44.8176C159.582 44.84 159.577 44.8622 159.569 44.8829C159.56 44.9035 159.547 44.9222 159.531 44.9379C159.515 44.9535 159.496 44.9657 159.475 44.9738C159.454 44.9819 159.432 44.9858 159.409 44.9851C159.375 44.9847 159.34 44.9762 159.31 44.9604C159.279 44.9445 159.252 44.9217 159.232 44.8937L158.881 44.4471H158.592V44.8024C158.593 44.8261 158.589 44.8498 158.58 44.8719C158.571 44.8941 158.559 44.9142 158.542 44.9313C158.525 44.9483 158.506 44.9618 158.484 44.9711C158.462 44.9803 158.438 44.9851 158.415 44.9851C158.391 44.9851 158.367 44.9804 158.345 44.9712C158.322 44.962 158.302 44.9485 158.285 44.9316C158.268 44.9146 158.255 44.8945 158.246 44.8723C158.237 44.8501 158.232 44.8264 158.232 44.8024V43.5083ZM158.963 44.1274C159.14 44.1274 159.237 44.0361 159.237 43.894C159.237 43.7417 159.135 43.6605 158.958 43.6605H158.597V44.1325H158.963V44.1274Z" fill="black"/>
</svg>
